Coordinates
version=1
nRows=17
nColumns=24
inDegrees=yes

Units are S.I. units (second, meters, Newtons, ...)
Angles are in degrees.

endheader
time	pelvis_tilt	pelvis_list	pelvis_rotation	pelvis_tx	pelvis_ty	pelvis_tz	hip_flexion_r	hip_adduction_r	hip_rotation_r	knee_angle_r	ankle_angle_r	subtalar_angle_r	mtp_angle_r	hip_flexion_l	hip_adduction_l	hip_rotation_l	knee_angle_l	ankle_angle_l	subtalar_angle_l	mtp_angle_l	lumbar_extension	lumbar_bending	lumbar_rotation
      0.77083333	     -4.93159802	      0.99272821	      2.78951219	     -0.35171481	      1.06762947	      0.30942803	     14.56898060	      1.91340764	      0.23160996	    -18.25768606	      9.98640976	     -7.22214857	      4.70706340	     20.57262377	     -3.05040022	     -4.41115082	    -68.77009042	     11.51929079	      3.22906554	      1.99619978	     -6.68753171	      4.05222882	      0.93787320
      0.77500000	     -4.88523405	      1.07533958	      2.69190865	     -0.34644831	      1.06841926	      0.30980493	     14.05413895	      1.86474751	      0.27635914	    -17.93229445	     10.08989780	     -7.10411768	      4.68613533	     21.00472937	     -2.98919022	     -4.57402829	    -68.32475120	     11.81672137	      3.46510842	      2.00301285	     -6.70180487	      3.90232708	      1.09074507
      0.77916667	     -4.85215649	      1.15358601	      2.59281367	     -0.34117878	      1.06913638	      0.31017552	     13.55339706	      1.81932584	      0.32382332	    -17.60619378	     10.19334582	     -6.99287078	      4.66611357	     21.44395347	     -2.93505868	     -4.74403162	    -67.84385390	     12.09611113	      3.69506690	      2.01132542	     -6.70147145	      3.76017356	      1.24660776
      0.78333333	     -4.80629808	      1.22108032	      2.48588460	     -0.33592108	      1.06982677	      0.31054427	     13.03965381	      1.78605254	      0.37734889	    -17.27763961	     10.29910025	     -6.89040006	      4.64322223	     21.85991011	     -2.89805159	     -4.92243678	    -67.32463371	     12.36696996	      3.95178342	      2.02190624	     -6.71345402	      3.63589247	      1.42621976
      0.78750000	     -4.76492710	      1.29228330	      2.37338790	     -0.33068539	      1.07048282	      0.31092883	     12.53003012	      1.74962157	      0.44178018	    -16.93912334	     10.38676304	     -6.79351522	      4.62395861	     22.27152638	     -2.85892983	     -5.10663908	    -66.76514057	     12.61720714	      4.19348365	      2.03338018	     -6.72741162	      3.49289098	      1.57558969
      0.79166667	     -4.71843533	      1.36799035	      2.25724803	     -0.32542716	      1.07111728	      0.31128768	     12.01630442	      1.70487913	      0.50374107	    -16.61086949	     10.48996110	     -6.70733893	      4.60169965	     22.66010861	     -2.81446759	     -5.29737894	    -66.15567016	     12.84675509	      4.45544327	      2.04715465	     -6.73364612	      3.37133483	      1.75919158
      0.79583333	     -4.66924527	      1.43517074	      2.14115560	     -0.32019909	      1.07170796	      0.31165717	     11.49698857	      1.67013723	      0.57652660	    -16.26949953	     10.59907720	     -6.61837598	      4.56413320	     23.04240315	     -2.78107103	     -5.48391187	    -65.51896394	     13.05895757	      4.70186376	      2.06742522	     -6.76426709	      3.22984034	      2.00670233
      0.80000000	     -4.64343407	      1.51930995	      2.01407501	     -0.31496216	      1.07222770	      0.31202078	     11.01311851	      1.61311763	      0.64773954	    -15.95023615	     10.68398797	     -6.53100963	      4.54507530	     23.43047387	     -2.72916871	     -5.68417730	    -64.83096321	     13.25166500	      4.94470524	      2.08212630	     -6.74775294	      3.09213254	      2.11607617
      0.80416667	     -4.60962214	      1.58075776	      1.89249656	     -0.30974810	      1.07269299	      0.31236383	     10.51835218	      1.57899987	      0.72135029	    -15.62290962	     10.79008123	     -6.44413930	      4.52172184	     23.80957143	     -2.70263426	     -5.87589254	    -64.12476390	     13.43786446	      5.20926905	      2.10062046	     -6.75304041	      2.97122141	      2.29346563
      0.80833333	     -4.56511222	      1.63568077	      1.77444818	     -0.30453850	      1.07314209	      0.31270348	     10.00682560	      1.55115001	      0.79634018	    -15.28225904	     10.89719292	     -6.36558510	      4.49187560	     24.16784288	     -2.68197016	     -6.05840969	    -63.38427239	     13.60064028	      5.45123392	      2.12382001	     -6.77715210	      2.84757362	      2.49820005
      0.81250000	     -4.52828190	      1.70646632	      1.64861616	     -0.29933885	      1.07354426	      0.31303807	      9.51319973	      1.50294747	      0.87158429	    -14.96150640	     11.00183114	     -6.28020731	      4.46381038	     24.51717127	     -2.64215408	     -6.24716099	    -62.59773348	     13.73931921	      5.67831059	      2.14677215	     -6.78853073	      2.71625549	      2.66395797
      0.81666667	     -4.49132148	      1.76416685	      1.52704082	     -0.29414856	      1.07389629	      0.31335167	      9.01899672	      1.46586027	      0.94337029	    -14.63719391	     11.10409999	     -6.19671031	      4.43640535	     24.85938750	     -2.61394687	     -6.42491333	    -61.78393170	     13.86533069	      5.89967151	      2.17021608	     -6.80151447	      2.60267190	      2.82409021
      0.82083333	     -4.47462223	      1.83407718	      1.40270777	     -0.28895480	      1.07418395	      0.31364806	      8.55410843	      1.41144933	      1.01281895	    -14.33009213	     11.19944439	     -6.11112684	      4.41876090	     25.20693888	     -2.56768595	     -6.60168253	    -60.92607566	     13.96200438	      6.09625821	      2.18684557	     -6.78744480	      2.47907326	      2.93767981
      0.82500000	     -4.42714077	      1.87475210	      1.28859049	     -0.28379188	      1.07445506	      0.31392552	      8.04883040	      1.38771812	      1.08105718	    -14.00331896	     11.31547175	     -6.02440665	      4.38934441	     25.52143026	     -2.54993082	     -6.75498051	    -60.05551057	     14.05771533	      6.28384513	      2.21263957	     -6.82306950	      2.38357276	      3.13431807
      0.82916667	     -4.40314226	      1.92951544	      1.17242444	     -0.27862362	      1.07465716	      0.31419134	      7.57729291	      1.34486399	      1.14515144	    -13.69569404	     11.42781209	     -5.93480378	      4.36073645	     25.84370039	     -2.51239436	     -6.90677310	    -59.14125891	     14.12416178	      6.43502678	      2.23683137	     -6.82620699	      2.27491236	      3.27988113
      0.83333333	     -4.38385624	      1.99019846	      1.05631927	     -0.27346211	      1.07480649	      0.31445084	      7.11700939	      1.29270100	      1.20097954	    -13.40016874	     11.53817570	     -5.84875820	      4.34516496	     26.15749974	     -2.46702472	     -7.05656353	    -58.19225118	     14.16766724	      6.56464066	      2.25063109	     -6.81622024	      2.16510979	      3.36979577
      0.83750000	     -4.34714222	      2.02901873	      0.94793916	     -0.26831174	      1.07494124	      0.31468022	      6.63466943	      1.26190634	      1.25488254	    -13.09694993	     11.65229901	     -5.75943239	      4.32867916	     26.44520848	     -2.43804486	     -7.18375289	    -57.21984694	     14.20257599	      6.66419926	      2.26414383	     -6.84155720	      2.07882039	      3.48962092
